<svg width="124" height="32" viewBox="0 0 124 32" fill="none" xmlns="http://www.w3.org/2000/svg">
<g id="Group">
<g id="Group_2">
<path id="Vector" d="M119.142 32.0003C120.533 32.0003 121.69 31.5478 122.613 30.6354C123.536 29.7268 124 28.5773 124 27.1833C124 25.7637 123.547 24.6106 122.639 23.7311C121.73 22.8517 120.565 22.4101 119.146 22.4101C117.755 22.4101 116.594 22.8517 115.671 23.7311C114.747 24.6106 114.284 25.7637 114.284 27.1833C114.284 28.5736 114.755 29.7268 115.689 30.6354C116.627 31.5478 117.777 32.0003 119.142 32.0003ZM99.3701 26.8877C98.4321 26.8877 97.6948 26.676 97.1546 26.2491C96.6144 25.8221 96.3443 25.2565 96.3443 24.5449C96.3443 22.983 97.5232 22.2021 99.8811 22.2021H103.374V24.2055C103.06 25.0886 102.549 25.7528 101.841 26.2089C101.133 26.6614 100.308 26.8877 99.3701 26.8877ZM99.6694 8.14167C97.8225 8.14167 95.9829 8.37521 94.1507 8.84596C92.3184 9.31671 90.7635 9.97722 89.486 10.8275L92.2125 16.3232C93.0082 15.6992 93.9754 15.2102 95.1106 14.8526C96.2457 14.4986 97.3699 14.3198 98.4758 14.3198C101.6 14.3198 103.235 15.5423 103.374 17.9836H98.7715C95.2785 17.9836 92.6943 18.5857 91.0153 19.7936C89.34 21.0015 88.5005 22.6984 88.5005 24.8843C88.5005 26.2454 88.8327 27.4606 89.5006 28.5262C90.1685 29.5918 91.154 30.4384 92.4607 31.0624C93.7674 31.6864 95.315 32.0003 97.1035 32.0003C100.483 32.0003 102.757 30.8799 103.922 28.6357V31.6171H111.462V18.7937C111.462 15.1883 110.455 12.5098 108.437 10.7618C106.429 9.01748 103.502 8.14167 99.6694 8.14167ZM73.5466 25.5667C72.1268 25.5667 70.9625 25.0777 70.0536 24.0961C69.1448 23.1181 68.6922 21.7605 68.6922 20.0272C68.6922 18.323 69.1448 16.9874 70.0536 16.024C70.9625 15.0569 72.1268 14.5752 73.5466 14.5752C74.9665 14.5752 76.1235 15.0569 77.0214 16.024C77.9156 16.991 78.3646 18.323 78.3646 20.0272C78.3646 21.7605 77.912 23.1181 77.0032 24.0961C76.0907 25.0777 74.9409 25.5667 73.5466 25.5667ZM78.2332 0.00755346V10.5319C76.7258 8.94084 74.5978 8.14531 71.8421 8.14531C69.7397 8.14531 67.8235 8.62701 66.0898 9.59405C64.356 10.5611 62.9873 11.9442 61.9799 13.7469C60.9689 15.5496 60.4652 17.6442 60.4652 20.0308C60.4652 22.4174 60.9689 24.5194 61.9799 26.3367C62.9873 28.154 64.3597 29.5516 66.0898 30.5333C67.8199 31.5149 69.7397 32.0039 71.8421 32.0039C74.8533 32.0039 77.109 31.1098 78.6164 29.3181V31.6171H86.3288V0.00390625L78.2332 0.00755346ZM48.5335 8.14167C47.0553 8.14167 45.6938 8.38981 44.4419 8.8861C43.1899 9.3824 42.1132 10.1013 41.2044 11.0355V8.52118H33.492V31.6134H41.5876V20.4505C41.5876 18.6332 42.0074 17.272 42.8432 16.3597C43.6827 15.451 44.7959 14.9949 46.1902 14.9949C48.7196 14.9949 49.9825 16.5714 49.9825 19.7243V31.6098H58.0781V18.4033C58.0781 14.9657 57.2058 12.3967 55.4575 10.6925C53.7128 8.99558 51.4024 8.14167 48.5335 8.14167ZM25.4804 1.79567L17.2132 21.2241L9.11759 1.79567H0L12.742 31.6171H21.053L33.8351 1.79567H25.4804Z" fill="white"/>
</g>
</g>
</svg>
