<svg width="21" height="20" viewBox="0 0 21 20" fill="none" xmlns="http://www.w3.org/2000/svg">
<path id="Vector" d="M15.115 13.4539L14.8414 13.8026L15.1548 14.1161L19.6263 18.5875L18.9209 19.2929L14.4494 14.8214L14.136 14.508L13.7873 14.7816C12.4208 15.8536 10.7033 16.5 8.83337 16.5C4.40952 16.5 0.833374 12.9239 0.833374 8.5C0.833374 4.07614 4.40952 0.5 8.83337 0.5C13.2572 0.5 16.8334 4.07614 16.8334 8.5C16.8334 10.37 16.187 12.0874 15.115 13.4539ZM1.83337 8.5C1.83337 12.3636 4.96973 15.5 8.83337 15.5C12.697 15.5 15.8334 12.3636 15.8334 8.5C15.8334 4.63636 12.697 1.5 8.83337 1.5C4.96973 1.5 1.83337 4.63636 1.83337 8.5Z" fill="#562F2F" stroke="#562F2F"/>
</svg>
