<svg width="32" height="32" viewBox="0 0 32 32" fill="none" xmlns="http://www.w3.org/2000/svg">
<g id="40px/truck">
<path id="Vector" d="M21.3333 4H1.33331V21.3333H21.3333V4Z" stroke="#696D8C" stroke-width="2.5" stroke-linecap="round" stroke-linejoin="round"/>
<path id="Vector_2" d="M21.3333 10.6667H26.6666L30.6666 14.6667V21.3334H21.3333V10.6667Z" stroke="#696D8C" stroke-width="2.5" stroke-linecap="round" stroke-linejoin="round"/>
<path id="Vector_3" d="M7.33333 27.9999C9.17428 27.9999 10.6667 26.5075 10.6667 24.6666C10.6667 22.8256 9.17428 21.3333 7.33333 21.3333C5.49238 21.3333 4 22.8256 4 24.6666C4 26.5075 5.49238 27.9999 7.33333 27.9999Z" stroke="#696D8C" stroke-width="2.5" stroke-linecap="round" stroke-linejoin="round"/>
<path id="Vector_4" d="M24.6666 27.9999C26.5076 27.9999 28 26.5075 28 24.6666C28 22.8256 26.5076 21.3333 24.6666 21.3333C22.8257 21.3333 21.3333 22.8256 21.3333 24.6666C21.3333 26.5075 22.8257 27.9999 24.6666 27.9999Z" stroke="#696D8C" stroke-width="2.5" stroke-linecap="round" stroke-linejoin="round"/>
</g>
</svg>
